<mxfile host="app.diagrams.net" modified="2024-01-15T13:27:29.538Z" agent="Mozilla/5.0 (Windows NT 10.0; Win64; x64) AppleWebKit/537.36 (KHTML, like Gecko) Chrome/120.0.0.0 Safari/537.36" version="22.1.18" etag="GQPnhGNykZiAF5lag1EH" type="github">
  <diagram name="Страница — 1" id="G4xhVnow05ZsofrNweHC">
    <mxGraphModel>
      <root>
        <mxCell id="0" />
        <mxCell id="1" parent="0" />
      </root>
    </mxGraphModel>
  </diagram>
</mxfile>
